<svg id="Isometric_Graphics" data-name="Isometric Graphics" xmlns="http://www.w3.org/2000/svg" xmlns:xlink="http://www.w3.org/1999/xlink" viewBox="0 0 1488.56 1039.92"><defs><style>.cls-1,.cls-2,.cls-7{fill:none;}.cls-2{stroke:#c1c7cd;stroke-width:1.41px;}.cls-2,.cls-7{stroke-miterlimit:10;}.cls-3{fill:#c1c7cd;}.cls-4{fill:#dde1e6;}.cls-5{fill:#f2f4f8;}.cls-6{fill:#878d96;}.cls-7{stroke:#0041f4;stroke-width:0.29px;}.cls-8{opacity:0.25;}.cls-9{fill:#4d5358;}.cls-10{fill:#bae6ff;}.cls-11{fill:#e5f6ff;}.cls-12{fill:#33b1ff;}.cls-13{fill:#fff;}.cls-14{opacity:0.35;}.cls-15{fill:#012749;}.cls-16{fill:#00539a;}.cls-17{fill:#a2191f;}.cls-18{fill:#fa4d56;}.cls-19{fill:#1d1d1d;}.cls-20{isolation:isolate;}.cls-21{clip-path:url(#clip-path);}.cls-22{fill:#edf5ff;}</style><clipPath id="clip-path"><polygon class="cls-1" points="990.56 355.83 991.57 326.83 1018.99 329.3 1017.98 358.3 990.56 355.83"/></clipPath></defs><line class="cls-2" x1="657.69" y1="511.55" x2="1487.81" y2="990.9"/><line id="Do_Not_Sign" data-name="Do Not Sign" class="cls-2" x1="-0.04" y1="891.38" x2="657.69" y2="511.55"/><line class="cls-2" x1="657.69" y1="511.55" x2="657.22" y2="1.22"/><g id="Shadow"><path class="cls-3" d="M395.26,701.5c18.24,10.53,18.32,27.59.22,38.11-9.76,5.67-39.46,15.56-52.27,15.11-11-.37-5.09-10.26-13.51-15.12-18.22-10.52-18.31-27.57-.21-38.09S377,691,395.26,701.5Z"/></g><g id="Pot"><g id="Pot-2" data-name="Pot"><path class="cls-4" d="M386.17,669.1l-.74,59.44c0,6.8-4.49,13.59-13.41,18.77-18,10.44-47.15,10.44-65.24,0-9.1-5.25-13.64-12.14-13.62-19l.17-58c1.19,6.1,4.57,10.41,13.66,15.66,18.09,10.45,47.29,10.45,65.24,0C381.15,680.8,384.17,675.24,386.17,669.1Z"/></g><g id="Pot_Top" data-name="Pot Top"><path class="cls-5" d="M372.56,651.62c18.24,10.53,18.32,27.59.22,38.11s-47.53,10.52-65.78,0-18.31-27.57-.21-38.09S354.34,641.1,372.56,651.62Z"/></g><g id="Pot_Interior" data-name="Pot Interior"><path class="cls-4" d="M369.53,654.45c16.55,9,16.61,23.49.19,32.45s-43.13,9-59.68,0-16.62-23.47-.19-32.43S353,645.49,369.53,654.45Z"/></g><g id="Dirt"><path class="cls-6" d="M369,666.84c5,2.71,9.39,6.4,11.42,10.1,0,0-2.14,5.5-11.45,10.36-16,8.38-42.15,8.34-58.27-.06-8.1-4.21-10.68-8.93-10.68-8.93,1.59-4,5.66-8.36,11.35-11.46C327.24,658.2,353.05,658.19,369,666.84Z"/></g></g><g id="Plant"><path class="cls-7" d="M341.45,557.3a29.17,29.17,0,0,1,8.28-4l-9.9,14.12"/><g id="Stem"><path class="cls-4" d="M326.26,681.23l9.55-41.41s-.15-12.79-6.27-29.92c-7.82-20.95-19.79-28.4-19.79-28.4l14.79,6,6.62-16.12s-2.34-17.15-5-24.69a49.39,49.39,0,0,0-8.31-14s5.28.85,11.56,10.7A49.19,49.19,0,0,1,336.65,563a19.26,19.26,0,0,1,4.8-5.68,29.17,29.17,0,0,1,8.28-4,105.09,105.09,0,0,0-9.9,14.12c-4.53,7.84-6.58,27.79-6.58,27.79l13.25,24.71a70,70,0,0,1,13.3-15.32c7.88-6.49,18.34-9.55,18.34-9.55a108.86,108.86,0,0,0-13.22,18.38,87.79,87.79,0,0,0-9,24.72c-1.57,7-5.93,42.74-5.93,42.74s-2.48,3.32-12.31,5.77S326.26,681.23,326.26,681.23Z"/></g><g id="Stem_Shadow" data-name="Stem Shadow"><path class="cls-3" d="M326.26,681.23l9.55-41.41s-.15-12.79-6.27-29.92c-7.82-20.95-19.79-28.4-19.79-28.4l14.79,6,6.62-16.12s-2.34-17.15-5-24.69a49.39,49.39,0,0,0-8.31-14s5.49.76,11.09,11c3.39,6.18,5.48,24.64,5.48,24.64a20.39,20.39,0,0,1,7-11,31.88,31.88,0,0,1,8.28-4s-7.17,3.09-12.83,14.6c-4,8.12-8.28,27.31-8.28,27.31s5.09,4.09,9.63,19.58c2.08,7.09,5.69,23.51,4.33,31.89-1.64,10.09-7.56,29.13-6.08,33.83s4.43,4.89,4.43,4.89a10.26,10.26,0,0,1-3.27,1.26C327.83,689.13,326.26,681.23,326.26,681.23Z"/></g><g id="Stem_Shadow-2" data-name="Stem Shadow"><path class="cls-3" d="M350.13,632l-3.89-11.11a49.27,49.27,0,0,1,13.56-16.22c9.41-7.28,17.55-9.3,17.55-9.3A98.37,98.37,0,0,0,360,613.54C351.94,624.67,350.13,632,350.13,632Z"/></g><g id="Leaf"><path class="cls-3" d="M321.66,533.41s-2.5-17.35-16.09-25.2c-17.18-9.92-42.2,4.32-42.2,4.32s10,18.45,25.32,24.92S321.66,533.41,321.66,533.41Z"/></g><g id="Leaf-2" data-name="Leaf"><path class="cls-3" d="M313.83,585.3s-11.61-20.65-32.58-23.91c-26.49-4.12-51.07,26-51.07,26s21.62,18.37,44.07,19.06S313.83,585.3,313.83,585.3Z"/></g><g id="Leaf-3" data-name="Leaf"><path class="cls-3" d="M344.78,552.67s2.92-20.32,18.85-29.51c20.12-11.62,49.41,5.05,49.41,5.05s-11.72,21.61-29.65,29.19S344.78,552.67,344.78,552.67Z"/></g><g id="Shadow-2" data-name="Shadow" class="cls-8"><path class="cls-9" d="M321.09,532.66s-8.77-12.65-19.4-13.1c-9-.37-19,6.29-24.13,10.34A41.58,41.58,0,0,0,289,537.45c13.3,5.63,28.37-2.15,32.1-4.29A4.16,4.16,0,0,0,321.09,532.66Z"/></g><g id="Shadow-3" data-name="Shadow" class="cls-8"><path class="cls-9" d="M312.63,583.75s-12.61,1.65-19.24,6.6c-5.44,4.06-9.94,9.89-11.25,14.77,16.23-3,28.5-16.31,31.45-19.76.09-.19.18-.38.24-.53C313.67,584.65,312.63,583.75,312.63,583.75Z"/></g><g id="Leaf-4" data-name="Leaf"><path class="cls-4" d="M321.58,533.28s-11.11-10.67-21.61-9c-12.77,2-24.51,18.56-24.51,18.56s15.47,8.81,29.58,6.82C326.19,546.67,321.58,533.28,321.58,533.28Z"/></g><g id="Leaf-5" data-name="Leaf"><path class="cls-4" d="M314.49,584.68s-18.08,3.21-23.86,14.51c-7,13.73.67,36.68.67,36.68s19.38-8.73,27.37-23.73C330.65,589.65,314.49,584.68,314.49,584.68Z"/></g><g id="Leaf-6" data-name="Leaf"><path class="cls-4" d="M344.6,552.61s13.65-7.12,23.27-2.57c11.68,5.52,18.33,24.68,18.33,24.68s-17.33,4.13-30.32-1.74C336.42,564.18,344.6,552.61,344.6,552.61Z"/></g><g id="Leaf-7" data-name="Leaf"><path class="cls-3" d="M375,595.15s11-16.19,24.53-16.87c16.42-.83,35.39,16.65,35.39,16.65S418,610,399.89,611.2C372.78,613,375,595.15,375,595.15Z"/></g><g id="Leaf-8" data-name="Leaf"><path class="cls-4" d="M324.38,537s-1.41-10.33,1.91-14.28a17.43,17.43,0,0,1,16.61-6s.08,11.9-5.33,17.32C330.42,541.18,324.38,537,324.38,537Z"/></g><g id="Leaf-9" data-name="Leaf"><path class="cls-4" d="M339,567.55s11.84,2.65,14.79,7.86a20.21,20.21,0,0,1-.15,20.53s-13-4.71-16.71-12.81C332.08,572.46,339,567.55,339,567.55Z"/></g><g id="Leaf-10" data-name="Leaf"><path class="cls-4" d="M373.64,598s-2.53-9-.09-12.87a15.57,15.57,0,0,1,13.95-7.41s1.56,10.52-2.56,16C379.5,601,373.64,598,373.64,598Z"/></g><g id="Leaf-11" data-name="Leaf"><path class="cls-4" d="M374.14,598.64s16.39-3.57,23.12,1.24C411.53,610.06,404,632.7,404,632.7s-14-5.32-23.4-13.31C368.25,608.85,374.14,598.64,374.14,598.64Z"/></g></g><g id="Door"><polygon class="cls-10" points="875.56 117.81 875.56 647.44 1142.01 801.3 1142.01 271.98 875.56 117.81"/><polygon class="cls-11" points="900.15 159.64 900.15 633.55 1118.63 756.59 1118.63 282.96 900.15 159.64"/><polygon class="cls-12" points="900.15 159.64 907.81 163.96 907.81 637.86 900.15 633.55 900.15 159.64"/><polygon class="cls-12" points="1142.01 272.01 1149.67 267.3 1149.67 797.01 1142.01 801.3 1142.01 272.01"/><polygon class="cls-11" points="875.56 117.81 883.04 113.49 1149.67 267.3 1142.01 272.01 875.56 117.81"/><polygon class="cls-13" points="900.15 633.6 907.42 629.41 1118.64 751.23 1118.63 760.21 900.15 633.6"/></g><g id="Sign"><polygon class="cls-4" points="941.32 60.19 941.32 129.59 1076.69 207.69 1076.65 138.38 941.32 60.19"/><polygon class="cls-6" points="941.32 60.19 947.94 56.26 1083.58 134.88 1076.65 138.38 941.32 60.19"/><polygon class="cls-9" points="1076.65 138.38 1083.58 134.88 1083.58 201.97 1076.69 207.69 1076.65 138.38"/><polygon class="cls-13" points="946.66 70.06 946.66 126.15 1071.08 197.97 1071.04 141.65 946.66 70.06"/><path class="cls-9" d="M978.12,136.34V130.5l-14.18-8.44V117.8l11.85-23.16,9.59,5.56v27.47l4.47,2.58v7l-4.47-2.58v5.85Zm-7.29-17.08,7.29,4.22V104.62l-.25-.15Z"/><path class="cls-9" d="M994.08,105.45v40l22.18,13V118.21ZM1009,145.59l-7.67-4.43v-23l7.66,4.42Z"/><polygon class="cls-9" points="1022.84 133.68 1028.23 136.89 1028.23 133.51 1034.52 137.06 1034.52 144.86 1028.23 141.53 1028.23 149.76 1034.52 153.12 1034.52 160.5 1028.23 156.87 1028.23 153.49 1022.84 150.28 1022.84 162.07 1041.79 172.74 1041.79 132.99 1022.84 121.92 1022.84 133.68"/></g><g id="Latch"><path class="cls-9" d="M1150.48,510.17l2.21,1.25-.1,22.6s2.53,4.68,6.09,6.69,10.38,2.61,10.38,2.61V560.7l-1.9,1.07V544.83a19.35,19.35,0,0,1-16.68-10.37Z"/><path class="cls-5" d="M1151.8,513.63l1.73-.74a25.37,25.37,0,0,0,6.4,4.9,13,13,0,0,0,8.34,1.77v2.08s-3.62,1.2-9.26-1.81C1153.71,517,1151.8,513.63,1151.8,513.63Z"/><path class="cls-3" d="M1170.08,498.6l-2.92,1.73a17.77,17.77,0,0,1-8.11-2.26,29.06,29.06,0,0,1-7.25-6.61l-106.3-61.28,2.74-1.34,106.11,60.76a22.32,22.32,0,0,0,6.67,6.25A24.19,24.19,0,0,0,1170.08,498.6Z"/><path class="cls-4" d="M1168.27,562.48V542.87s-4,1-9.34-2a17.08,17.08,0,0,1-7.13-7.29v-20s1.93,3.07,7.13,6.07,9.34,2,9.34,2V501l36.63,20.92v61Z"/><path class="cls-4" d="M1045.5,492.21v-62l106.3,61.28a31.43,31.43,0,0,0,7.59,6.64,15.24,15.24,0,0,0,7.77,2.23v19.33s-3.27.43-7.77-2.17a45.26,45.26,0,0,1-8.91-7.32v24.29a18.4,18.4,0,0,0,7.33,7.68c5.27,3,9.35,2.69,9.35,2.69v16.94a18.74,18.74,0,0,1-10.24-2.34,14.27,14.27,0,0,1-6.44-7.19Z"/><path class="cls-3" d="M1193,528a7.33,7.33,0,0,1-1.16,4,7.86,7.86,0,0,1-.59.8,7.36,7.36,0,1,1-8.76-11.42,7.31,7.31,0,0,1,3.15-.7A7.36,7.36,0,0,1,1193,528Z"/><circle class="cls-4" cx="1184.18" cy="528.04" r="7.36"/><path class="cls-3" d="M1185.61,561.81a6.92,6.92,0,0,1-3-13.17,7.37,7.37,0,0,1,1.5-.51,7.16,7.16,0,0,1,1.46-.15,6.92,6.92,0,0,1,6.91,6.91,6.83,6.83,0,0,1-1.09,3.73,6.55,6.55,0,0,1-.55.75,7.05,7.05,0,0,1-2.41,1.82A6.85,6.85,0,0,1,1185.61,561.81Z"/><path class="cls-3" d="M1185.61,548.43a6.48,6.48,0,0,1,5.45,10,7,7,0,0,1-.52.7,6.67,6.67,0,0,1-2.25,1.7,6.37,6.37,0,0,1-2.68.58,6.47,6.47,0,0,1-2.77-12.31,5.87,5.87,0,0,1,1.41-.48,6.82,6.82,0,0,1,1.36-.14m0-.9a7.52,7.52,0,0,0-3.15.71,7.36,7.36,0,0,0,6.2,13.36,7.53,7.53,0,0,0,2.56-1.94,7.86,7.86,0,0,0,.59-.8,7.36,7.36,0,0,0-6.2-11.33Z"/><circle class="cls-4" cx="1184.18" cy="554.89" r="7.36"/><polygon class="cls-3" points="1168.27 500.96 1171.1 499.11 1208.39 519.87 1204.9 521.88 1168.27 500.96"/><polygon class="cls-9" points="1167.16 519.66 1168.27 518.81 1168.27 500.96 1170.08 499.78 1170.08 498.6 1167.16 500.32 1167.16 519.66"/><polygon class="cls-9" points="1204.9 582.68 1208.39 580.56 1208.39 519.66 1204.9 521.68 1204.9 582.68"/><path class="cls-6" d="M1168.69,498c-.86,1.69-4.67,1.48-8.5-.48-3-1.55-5.17-3.73-5.49-5.41l0-.19c0-.06,0-.63,0-.68,0-.31,0-.07.17-.33.87-1.69,4.67-1.48,8.5.48,3.37,1.72,5.63,3.54,5.54,5.27,0,0,0,.74,0,.77A1.63,1.63,0,0,1,1168.69,498Z"/><ellipse class="cls-4" cx="1161.76" cy="493.72" rx="3.45" ry="7.78" transform="translate(193.16 1303.2) rotate(-62.91)"/></g><polygon class="cls-11" points="1099.57 513.55 1080.45 503.22 1080.45 455.67 1099.57 466.49 1099.57 513.55"/><g id="Lock_Shadow" data-name="Lock Shadow" class="cls-14"><path class="cls-9" d="M1140.7,571.78c.08-3.25-2.21-6.68-7.87-10l-5-2.91c0-9.75-.06-24-.12-24,0-8.71-1.31-15.77-5-25.57-7.13-19.25-17-28.55-31-33.43-1-.33-1.88-.62-2.79-.88l-.82-.22c-.63-.17-1.27-.34-1.89-.48l-.91-.18c-.58-.12-1.16-.24-1.72-.34l-.88-.12c-.55-.09-1.11-.17-1.66-.23l-.82-.07c-.55,0-1.09-.1-1.63-.13l-.76,0-1.59,0-.7,0c-.52,0-1,0-1.55.06l-.64.05c-.51,0-1,.09-1.51.15h-.1a31.83,31.83,0,0,0-12.52,4.12c-11.17,6.8-15.52,18.71-15.5,26.68,0,2.46,0,10.45,0,17.6a35.94,35.94,0,0,0-8.12,3.48,10.25,10.25,0,0,0-5.08,9.89c0-.15,0-.31,0-.46l0,100.09c0,3.43,2.32,7,7.84,10.21,28.71,16.62,33.58,19.38,61.12,35.3,12,6.91,24.38,4.77,33.39-.43,4.85-2.8,7.9-6.62,7.9-12.62v-96C1140.73,571.54,1140.7,571.66,1140.7,571.78Zm-69.25-45.4c-.78-.46-1.56-.88-2.35-1.29V504.15s0-.1,0-.12a5.1,5.1,0,0,1,.43-1.66,1.09,1.09,0,0,1,.08-.15,9.75,9.75,0,0,1,3.6-4h0a5.13,5.13,0,0,1,1-.46l.19-.06a6.46,6.46,0,0,1,1-.22l.21,0a19.06,19.06,0,0,1,8.09,1.29c13.06,4.56,18.67,23.49,18.67,36.71v8.8C1094.73,539.85,1087.13,535.49,1071.45,526.38Zm61.38,55.13a19.33,19.33,0,0,0,6.37-5.43A19,19,0,0,1,1132.83,581.51Z"/></g><g id="Lock"><path class="cls-15" d="M1033.69,548.46c31,18,29.43,16.85,60.4,34.85a34.13,34.13,0,0,0,34.12,0c4.84-2.8,7.9-6.09,7.89-10.09v95.95c0,6-3,9.82-7.89,12.62-9,5.2-21.44,7.33-33.4.42-27.54-15.91-32.41-18.67-61.12-35.29-5.52-3.2-7.83-6.78-7.84-10.21l0-100.09C1025.88,540.05,1028.18,545.26,1033.69,548.46Z"/><path class="cls-16" d="M1031,527.18c11.93-6.88,23.89-5.94,35.83,1,31,18,30.41,17.44,61.39,35.44,11.93,6.94,9,14.5,0,19.7a34.13,34.13,0,0,1-34.12,0c-31-18-29.43-16.83-60.4-34.85C1024,542.8,1023.58,531.46,1031,527.18Z"/><path class="cls-17" d="M1053.06,596c.22-6,4.27-8.17,9.4-5.1s9.27,10.3,9.27,16.25c0,4.1-2,6.54-4.85,6.73a.51.51,0,0,0-.48.51v7.41c0,5.83-7.85,1.41-7.85-4.92,0-2.63,0-5.1,0-7.73C1055.27,605.39,1052.89,600.39,1053.06,596Z"/><path class="cls-18" d="M1052.85,596.2c0-4.64,2.48-7.12,6-6.65a7.66,7.66,0,0,0-1.49,5c0,4.17,2,9,5,12.52a1.34,1.34,0,0,1,.32.87v7.42a8.65,8.65,0,0,0,3.67,6.84c-.39,5.63-8.2,1-8.2-5.2v-7.49a1.18,1.18,0,0,0-.27-.74C1054.9,605.22,1052.85,600.39,1052.85,596.2Z"/><path class="cls-19" d="M1041.9,530.55c-5.33,3.08-5.33,8.07,0,11.15s14,3.08,19.32,0,5.33-8.07,0-11.15S1047.24,527.47,1041.9,530.55Z"/><path class="cls-19" d="M1100.71,564.06c-5.33,3.08-5.33,8.07,0,11.15s14,3.08,19.31,0,5.34-8.07,0-11.15S1106,561,1100.71,564.06Z"/><path class="cls-4" d="M1038.82,505.51a32.54,32.54,0,0,1,15.51-26.68c6-3.65,17.6-6.91,32.48-1.71,14,4.87,23.84,14.17,31,33.42a73.48,73.48,0,0,1,5,25.58c0,9.33.08,32.93.08,32.93,0,1.89-1.21,3.79-3.71,5.24-5,2.86-13,2.86-17.93,0-2.47-1.43-3.71-3.3-3.71-5.18,0-4.72,0-23.76,0-32.45,0-13.22-5.61-32.15-18.66-36.72-3.27-1.14-7.75-2.15-10.53-.5-2,1.2-4,3.64-4.14,5.85v.06s0,30.31,0,30.31c0,1.9-1.29,3.71-3.79,5.16-5,2.86-12.89,2.94-17.84.09-2.48-1.43-3.71-3.31-3.71-5.18C1038.84,535.73,1038.78,510.27,1038.82,505.51Z"/><path class="cls-3" d="M1114,569c0-.16-.08-16.37-.08-27.95,0-10.42-1.85-18.19-5-28.09-6-18.66-17.23-31.69-31.5-36.68-1-.36-2-.68-3.07-1a46.36,46.36,0,0,1,12.2,2.57c14.16,4.95,23.84,15.41,30.46,32.92,3.57,9.44,5,16.53,5,25.28V537h0c.06,4.48.11,26.75.07,31.23h0v.86c0,1.66-1.14,3.26-3.28,4.49a15.07,15.07,0,0,1-4.71,1.68Z"/><path class="cls-3" d="M1082.52,477.57c1.24.33,2.49.71,3.73,1.15,13.91,4.86,23.43,15.16,30,32.42,3.58,9.46,4.9,16.23,4.9,25v1.69h0c.06,5.55.1,24,.07,29.54h0l0,1.72c0,1.32-1,2.69-2.86,3.75a13.27,13.27,0,0,1-3.43,1.35V569c0-.17-.08-16.37-.08-27.95,0-10.53-1.87-18.37-5.1-28.35-5.42-16.76-15-29.05-27.18-35.17m-10.91-3.16a40.42,40.42,0,0,0-4.79.29,48.49,48.49,0,0,1,10.3,2.42c14,4.87,24.9,17.37,31,36.14,3.25,10.06,5,17.71,5,27.83,0,11.71.08,28,.08,28l0,7.17a16.65,16.65,0,0,0,6-1.93c2.5-1.45,3.74-3.35,3.71-5.24.08,0,0-32.93-.08-32.93,0-8.72-1.31-15.78-5-25.58-7-18.45-17-28.55-31-33.42a45.83,45.83,0,0,0-15.2-2.71Z"/><path class="cls-3" d="M1076.53,499.24a6.34,6.34,0,0,0-.69-.17Z"/><path class="cls-3" d="M1075.84,499.07l.69.17a6.34,6.34,0,0,0-.69-.17Z"/><path class="cls-3" d="M1055.33,535.67c0-.27,0-26.37,0-27.1a9.05,9.05,0,0,1,5.77-8.32,21.83,21.83,0,0,1,6-1c-1.78,1.36-3.51,3.57-3.69,5.87l0,.19v30.32c0,1.67-1.13,3.26-3.28,4.5a12.47,12.47,0,0,1-1.37.68c-.33.14-.66.27-1,.38a17.27,17.27,0,0,1-2.38.63Z"/><path class="cls-3" d="M1064.73,500.31a8.67,8.67,0,0,0-2.23,4.78v30.6c0,1.32-1,2.69-2.86,3.75a10.86,10.86,0,0,1-1.28.63c-.3.13-.62.25-.94.36a13.07,13.07,0,0,1-1.26.37l0-5.14c0-9.11,0-26.5,0-27.1a8.15,8.15,0,0,1,5.16-7.5,21.53,21.53,0,0,1,3.4-.75m3.23-1.88a23.2,23.2,0,0,0-7.11,1,9.83,9.83,0,0,0-6.38,9.12c0,.75,0,27.11,0,27.11l0,7.18.18,0a18.61,18.61,0,0,0,3.33-.8c.36-.12.72-.25,1.06-.4a13.2,13.2,0,0,0,1.46-.72c2.51-1.45,3.74-3.35,3.71-5.24V505.35a.45.45,0,0,0,0-.13c.17-2.21,2.16-4.58,4.12-5.78a6.87,6.87,0,0,1,3.49-.86c-1.44-.1-2.7-.15-3.84-.15Z"/></g><polygon class="cls-5" points="1067.37 511.17 1082.46 519.88 1082.46 475.9 1067.37 467.19 1067.37 511.17"/><polygon class="cls-4" points="1082.46 458.74 1067.37 467.19 1082.46 475.9 1097.61 467.32 1082.46 458.74"/><path class="cls-3" d="M1082.92,476.17l14.23-8.06v4.09L1086,478.27l.17,33.48,3.6-1.94c.25.4.68,1.09,1.15,1.93.39.68.91,1.67,1.2,2.22l-9.19,5.14Z"/><path class="cls-3" d="M1096.69,468.9v3L1086,477.74l-.49.26v.55l.17,32.44v1.53l1.35-.73,2.54-1.37c.25.4.57.93.91,1.54s.69,1.26,1,1.82l-8.11,4.53V476.44l13.31-7.54m.92-1.58-15.15,8.58v44l10.26-5.74s-.84-1.64-1.4-2.63c-.76-1.34-1.4-2.31-1.4-2.31l-3.3,1.78-.16-32.43,11.15-6.08v-5.15Z"/><polygon class="cls-9" points="1082.17 458.11 1082.17 458.58 1082.17 458.9 1082.46 458.74 1097.61 467.32 1097.61 472.47 1097.35 472.62 1097.61 472.73 1098.08 472.47 1098.03 467 1082.17 458.11"/><g id="Do_Not_Sign-2" data-name="Do Not Sign"><g id="Do_Not_Symbol" data-name="Do Not Symbol"><path class="cls-10" d="M962.12,344.4l42.15-58a4.71,4.71,0,0,1,8.18,1l42.3,106.78A4.7,4.7,0,0,1,1048,400l-84.46-48.77A4.71,4.71,0,0,1,962.12,344.4Z"/></g><g id="Do_Not_Symbol-2" data-name="Do Not Symbol"><g class="cls-20"><g class="cls-21"><path class="cls-22" d="M1004.36,354.38a11.94,11.94,0,0,1-9.6-6.93c-2.6-5.48-1-11.84,3.59-14.93l10.16,21.41a10.48,10.48,0,0,1-4.15.45m6.84-1.76L1001,331.2a10.25,10.25,0,0,1,4.14-.45,12,12,0,0,1,9.61,6.93c2.6,5.47,1,11.84-3.59,14.94m-5.93-24.55a12.75,12.75,0,0,0-6.79,1.24c-6.78,3.3-9.47,11.92-6,19.25a14.71,14.71,0,0,0,11.79,8.51,12.85,12.85,0,0,0,6.79-1.25c6.78-3.31,9.46-11.93,6-19.25a14.66,14.66,0,0,0-11.79-8.5"/></g></g></g></g></svg>