<svg id="Isometric_Graphics" data-name="Isometric Graphics" xmlns="http://www.w3.org/2000/svg" xmlns:xlink="http://www.w3.org/1999/xlink" viewBox="0 0 1488.56 1039.92"><defs><style>.cls-1,.cls-8{fill:none;stroke-miterlimit:10;}.cls-1{stroke:#c1c7cd;stroke-width:1.41px;}.cls-2{fill:#dde1e6;}.cls-3{fill:#878d96;}.cls-4{fill:#4d5358;}.cls-5{fill:#fff;}.cls-6{fill:#c1c7cd;}.cls-7{fill:#f2f4f8;}.cls-8{stroke:#0041f4;stroke-width:0.29px;}.cls-9{opacity:0.25;}.cls-10{fill:#bae6ff;}.cls-11{fill:#012749;}.cls-12{fill:#08bdba;}.cls-13{fill:#009d9a;}.cls-14{fill:#33b1ff;}.cls-15{fill:#e5f6ff;}.cls-16{fill:#82cfff;}.cls-17{fill:url(#linear-gradient);}.cls-18{fill:#00539a;}.cls-19{fill:#007d79;}.cls-20{fill:#003a6d;}.cls-21{fill:#005d5d;}.cls-22{fill:#a2191f;}.cls-23{fill:#fa4d56;}.cls-24{opacity:0.5;}</style><linearGradient id="linear-gradient" x1="782.16" y1="912.72" x2="937.15" y2="656.55" gradientUnits="userSpaceOnUse"><stop offset="0" stop-color="#fff" stop-opacity="0"/><stop offset="0.18" stop-color="#f9fbfd" stop-opacity="0.02"/><stop offset="0.34" stop-color="#e7eff6" stop-opacity="0.09"/><stop offset="0.49" stop-color="#c9daea" stop-opacity="0.21"/><stop offset="0.64" stop-color="#9ebed9" stop-opacity="0.38"/><stop offset="0.79" stop-color="#6799c3" stop-opacity="0.59"/><stop offset="0.93" stop-color="#256ca9" stop-opacity="0.85"/><stop offset="1" stop-color="#00539a"/></linearGradient></defs><line class="cls-1" x1="657.69" y1="511.55" x2="1487.81" y2="990.9"/><line id="Do_Not_Sign" data-name="Do Not Sign" class="cls-1" x1="-0.04" y1="891.38" x2="657.69" y2="511.55"/><line class="cls-1" x1="657.69" y1="511.55" x2="657.22" y2="1.22"/><g id="Sign"><polygon class="cls-2" points="941.32 60.23 941.32 129.63 1076.69 207.73 1076.65 138.42 941.32 60.23"/><polygon class="cls-3" points="941.32 60.23 947.94 56.3 1083.58 134.92 1076.65 138.42 941.32 60.23"/><polygon class="cls-4" points="1076.65 138.42 1083.58 134.92 1083.58 202.01 1076.69 207.73 1076.65 138.42"/><polygon class="cls-5" points="946.66 70.09 946.66 126.19 1071.08 198.01 1071.04 141.69 946.66 70.09"/><path class="cls-4" d="M978.12,136.38v-5.84L964,122.1v-4.26l11.84-23.16,9.59,5.56v27.47l4.47,2.58v7l-4.47-2.58v5.85Zm-7.29-17.08,7.29,4.22V104.66l-.25-.15Z"/><path class="cls-4" d="M1035.63,169.74v-5.83l-14.17-8.44V151.2L1033.3,128l9.6,5.57v27.47l4.47,2.58v7l-4.47-2.58v5.84Zm-7.28-17.08,7.28,4.23V138l-.25-.14Z"/><path class="cls-4" d="M994.08,105.49v40l22.18,13V118.25ZM1009,145.63l-7.67-4.43v-23l7.66,4.42Z"/></g><g id="Shadow"><path class="cls-6" d="M395.26,701.5c18.24,10.53,18.32,27.59.22,38.11-9.76,5.67-39.46,15.56-52.27,15.11-11-.37-5.09-10.26-13.51-15.12-18.22-10.52-18.31-27.57-.21-38.09S377,691,395.26,701.5Z"/></g><g id="Pot"><g id="Pot-2" data-name="Pot"><path class="cls-2" d="M386.17,669.1l-.74,59.44c0,6.8-4.49,13.59-13.41,18.77-18,10.44-47.15,10.44-65.24,0-9.1-5.25-13.64-12.14-13.62-19l.17-58c1.19,6.1,4.57,10.41,13.66,15.66,18.09,10.45,47.29,10.45,65.24,0C381.15,680.8,384.17,675.24,386.17,669.1Z"/></g><g id="Pot_Top" data-name="Pot Top"><path class="cls-7" d="M372.56,651.62c18.24,10.53,18.32,27.59.22,38.11s-47.53,10.52-65.78,0-18.31-27.57-.21-38.09S354.34,641.1,372.56,651.62Z"/></g><g id="Pot_Interior" data-name="Pot Interior"><path class="cls-2" d="M369.53,654.45c16.55,9,16.61,23.49.19,32.45s-43.13,9-59.68,0-16.62-23.47-.19-32.43S353,645.49,369.53,654.45Z"/></g><g id="Dirt"><path class="cls-3" d="M369,666.84c5,2.71,9.39,6.4,11.42,10.1,0,0-2.14,5.5-11.45,10.36-16,8.38-42.15,8.34-58.27-.06-8.1-4.21-10.68-8.93-10.68-8.93,1.59-4,5.66-8.36,11.35-11.46C327.24,658.2,353.05,658.19,369,666.84Z"/></g></g><g id="Plant"><path class="cls-8" d="M341.45,557.3a29.17,29.17,0,0,1,8.28-4l-9.9,14.12"/><g id="Stem"><path class="cls-2" d="M326.26,681.23l9.55-41.41s-.15-12.79-6.27-29.92c-7.82-20.95-19.79-28.4-19.79-28.4l14.79,6,6.62-16.12s-2.34-17.15-5-24.69a49.39,49.39,0,0,0-8.31-14s5.28.85,11.56,10.7A49.19,49.19,0,0,1,336.65,563a19.26,19.26,0,0,1,4.8-5.68,29.17,29.17,0,0,1,8.28-4,105.09,105.09,0,0,0-9.9,14.12c-4.53,7.84-6.58,27.79-6.58,27.79l13.25,24.71a70,70,0,0,1,13.3-15.32c7.88-6.49,18.34-9.55,18.34-9.55a108.86,108.86,0,0,0-13.22,18.38,87.79,87.79,0,0,0-9,24.72c-1.57,7-5.93,42.74-5.93,42.74s-2.48,3.32-12.31,5.77S326.26,681.23,326.26,681.23Z"/></g><g id="Stem_Shadow" data-name="Stem Shadow"><path class="cls-6" d="M326.26,681.23l9.55-41.41s-.15-12.79-6.27-29.92c-7.82-20.95-19.79-28.4-19.79-28.4l14.79,6,6.62-16.12s-2.34-17.15-5-24.69a49.39,49.39,0,0,0-8.31-14s5.49.76,11.09,11c3.39,6.18,5.48,24.64,5.48,24.64a20.39,20.39,0,0,1,7-11,31.88,31.88,0,0,1,8.28-4s-7.17,3.09-12.83,14.6c-4,8.12-8.28,27.31-8.28,27.31s5.09,4.09,9.63,19.58c2.08,7.09,5.69,23.51,4.33,31.89-1.64,10.09-7.56,29.13-6.08,33.83s4.43,4.89,4.43,4.89a10.26,10.26,0,0,1-3.27,1.26C327.83,689.13,326.26,681.23,326.26,681.23Z"/></g><g id="Stem_Shadow-2" data-name="Stem Shadow"><path class="cls-6" d="M350.13,632l-3.89-11.11a49.27,49.27,0,0,1,13.56-16.22c9.41-7.28,17.55-9.3,17.55-9.3A98.37,98.37,0,0,0,360,613.54C351.94,624.67,350.13,632,350.13,632Z"/></g><g id="Leaf"><path class="cls-6" d="M321.66,533.41s-2.5-17.35-16.09-25.2c-17.18-9.92-42.2,4.32-42.2,4.32s10,18.45,25.32,24.92S321.66,533.41,321.66,533.41Z"/></g><g id="Leaf-2" data-name="Leaf"><path class="cls-6" d="M313.83,585.3s-11.61-20.65-32.58-23.91c-26.49-4.12-51.07,26-51.07,26s21.62,18.37,44.07,19.06S313.83,585.3,313.83,585.3Z"/></g><g id="Leaf-3" data-name="Leaf"><path class="cls-6" d="M344.78,552.67s2.92-20.32,18.85-29.51c20.12-11.62,49.41,5.05,49.41,5.05s-11.72,21.61-29.65,29.19S344.78,552.67,344.78,552.67Z"/></g><g id="Shadow-2" data-name="Shadow" class="cls-9"><path class="cls-4" d="M321.09,532.66s-8.77-12.65-19.4-13.1c-9-.37-19,6.29-24.13,10.34A41.58,41.58,0,0,0,289,537.45c13.3,5.63,28.37-2.15,32.1-4.29A4.16,4.16,0,0,0,321.09,532.66Z"/></g><g id="Shadow-3" data-name="Shadow" class="cls-9"><path class="cls-4" d="M312.63,583.75s-12.61,1.65-19.24,6.6c-5.44,4.06-9.94,9.89-11.25,14.77,16.23-3,28.5-16.31,31.45-19.76.09-.19.18-.38.24-.53C313.67,584.65,312.63,583.75,312.63,583.75Z"/></g><g id="Leaf-4" data-name="Leaf"><path class="cls-2" d="M321.58,533.28s-11.11-10.67-21.61-9c-12.77,2-24.51,18.56-24.51,18.56s15.47,8.81,29.58,6.82C326.19,546.67,321.58,533.28,321.58,533.28Z"/></g><g id="Leaf-5" data-name="Leaf"><path class="cls-2" d="M314.49,584.68s-18.08,3.21-23.86,14.51c-7,13.73.67,36.68.67,36.68s19.38-8.73,27.37-23.73C330.65,589.65,314.49,584.68,314.49,584.68Z"/></g><g id="Leaf-6" data-name="Leaf"><path class="cls-2" d="M344.6,552.61s13.65-7.12,23.27-2.57c11.68,5.52,18.33,24.68,18.33,24.68s-17.33,4.13-30.32-1.74C336.42,564.18,344.6,552.61,344.6,552.61Z"/></g><g id="Leaf-7" data-name="Leaf"><path class="cls-6" d="M375,595.15s11-16.19,24.53-16.87c16.42-.83,35.39,16.65,35.39,16.65S418,610,399.89,611.2C372.78,613,375,595.15,375,595.15Z"/></g><g id="Leaf-8" data-name="Leaf"><path class="cls-2" d="M324.38,537s-1.41-10.33,1.91-14.28a17.43,17.43,0,0,1,16.61-6s.08,11.9-5.33,17.32C330.42,541.18,324.38,537,324.38,537Z"/></g><g id="Leaf-9" data-name="Leaf"><path class="cls-2" d="M339,567.55s11.84,2.65,14.79,7.86a20.21,20.21,0,0,1-.15,20.53s-13-4.71-16.71-12.81C332.08,572.46,339,567.55,339,567.55Z"/></g><g id="Leaf-10" data-name="Leaf"><path class="cls-2" d="M373.64,598s-2.53-9-.09-12.87a15.57,15.57,0,0,1,13.95-7.41s1.56,10.52-2.56,16C379.5,601,373.64,598,373.64,598Z"/></g><g id="Leaf-11" data-name="Leaf"><path class="cls-2" d="M374.14,598.64s16.39-3.57,23.12,1.24C411.53,610.06,404,632.7,404,632.7s-14-5.32-23.4-13.31C368.25,608.85,374.14,598.64,374.14,598.64Z"/></g></g><polygon class="cls-10" points="875.56 118.17 875.56 647.81 1142.01 801.67 1142.01 272.34 875.56 118.17"/><polygon class="cls-11" points="903.21 161.45 903.21 663.77 1121.68 789.93 1121.69 284.77 903.21 161.45"/><path class="cls-12" d="M1121.69,382.87a83.51,83.51,0,1,1-82.34-145l82.34,46.85Z"/><path class="cls-13" d="M1121.69,284.77c0,31.7.11,96.23,0,96.29a83.51,83.51,0,0,1-84.44-143.95Z"/><polygon class="cls-14" points="900.15 159.72 907.81 164.04 907.81 666.43 900.15 662.01 900.15 159.72"/><polygon class="cls-14" points="1142.01 272.38 1149.67 267.67 1149.67 797.37 1142.01 801.67 1142.01 272.38"/><polygon class="cls-15" points="875.56 118.17 883.04 113.85 1149.67 267.67 1142.01 272.38 875.56 118.17"/><polygon class="cls-15" points="900.15 159.38 900.14 661.68 681.67 787.22 681.66 286.44 900.15 159.38"/><path class="cls-3" d="M735.16,489.63v65a1.23,1.23,0,0,1-.61,1.06l-23.36,13.11a1.21,1.21,0,0,1-1.12.06c-.41-.19-3-3-3-3.51v-63a2.92,2.92,0,0,1,1.62-2.49l22.44-13c.86-.41,3.47,1.48,3.83,1.86A1.31,1.31,0,0,1,735.16,489.63Z"/><path class="cls-7" d="M735.41,489.52v65a1.21,1.21,0,0,1-.61,1.06l-23.58,13.31a1.22,1.22,0,0,1-1.84-1.06v-63.9a3.08,3.08,0,0,1,1.53-2.65l22.28-12.9A1.59,1.59,0,0,1,735.41,489.52Z"/><polygon class="cls-5" points="900.15 159.72 681.66 286.44 668.73 279.26 887.36 152.85 900.15 159.72"/><polygon class="cls-16" points="668.73 278.92 681.66 286.1 681.67 787.22 670 780.48 668.73 278.92"/><polygon class="cls-17" points="899.75 661.98 545.78 864.95 761.88 995.08 1121.72 789.96 899.75 661.98"/><circle class="cls-5" cx="946.66" cy="340.55" r="2.06"/><circle class="cls-2" cx="947.18" cy="340.17" r="2.06"/><circle class="cls-5" cx="1078.09" cy="444.57" r="2.06"/><circle class="cls-5" cx="959.7" cy="526.65" r="2.06"/><circle class="cls-18" cx="1086.34" cy="613.65" r="4.12"/><circle class="cls-18" cx="985.73" cy="440.45" r="5.77"/><circle class="cls-18" cx="963.82" cy="242.24" r="4.95"/><circle class="cls-19" cx="1017.45" cy="345.26" r="10.9"/><circle class="cls-20" cx="957.7" cy="618.74" r="6.84"/><circle class="cls-19" cx="1014.85" cy="310.79" r="8.3"/><circle class="cls-19" cx="1043.93" cy="364.46" r="8.3"/><circle class="cls-19" cx="1040.18" cy="338.49" r="7.69"/><circle class="cls-19" cx="1020.66" cy="284.22" r="7.69"/><circle class="cls-19" cx="1042.89" cy="307.47" r="4.98"/><g id="Rocket_Group" data-name="Rocket Group"><g id="Jet_2_Edge" data-name="Jet 2 Edge"><path class="cls-12" d="M1042.94,510.17l-15.52,8.93,3.63-5.39,10.61-7.53,1.27.72a1.39,1.39,0,0,1,.81,1.2A4.9,4.9,0,0,1,1042.94,510.17Z"/></g><g id="Jet_2" data-name="Jet 2"><path class="cls-21" d="M1041.5,509.35l-12.26,7,3.62-5.39,8.62-4.94a1.43,1.43,0,0,1,.82,1.21A5,5,0,0,1,1041.5,509.35Z"/></g><g id="Jet_1_Edge" data-name="Jet 1 Edge"><path class="cls-12" d="M1042.76,505.39l-15.52,8.92,3.63-5.39,10.61-7.53,1.27.72a1.41,1.41,0,0,1,.81,1.21A5,5,0,0,1,1042.76,505.39Z"/></g><g id="Jet_1" data-name="Jet 1"><path class="cls-21" d="M1041.32,504.57l-12.27,7.05,3.63-5.39,8.62-4.94a1.43,1.43,0,0,1,.82,1.21A5,5,0,0,1,1041.32,504.57Z"/></g><g id="Rocket_Edge" data-name="Rocket Edge"><path class="cls-4" d="M1043.56,500l-.71-1.24s-7.27-.73-9.16.36l-15.77,9.06,0,11.48-.71.42,1.41.83,15.06-8.65C1042.87,506.93,1043.68,503.42,1043.56,500Z"/></g><g id="Rocket"><path class="cls-5" d="M1042.85,498.73a9.67,9.67,0,0,0-9.9-.92l-15.76,9.06v13.18l15.75-9.06C1042.15,505.69,1043,502.18,1042.85,498.73Z"/></g><g id="Wing_Left" data-name="Wing Left"><path class="cls-6" d="M1030.12,499.49l-11.44,6.58v-6.66l3.68-2.12a1.29,1.29,0,0,1,1.1-.08Z"/></g><path id="Wing_Righ_Edge" data-name="Wing Righ Edge" class="cls-4" d="M1023.55,524.63l-3.52,2-1.42-.81.71-.41v-5l9.15-5.22,1.6-2.54,1.38.84-6.78,10.08A3.28,3.28,0,0,1,1023.55,524.63Z"/><g id="Wing_Right" data-name="Wing Right"><path class="cls-6" d="M1022.85,523.4l-4.24,2.44v-6.67l11.46-6.53-6.11,9.69A3.16,3.16,0,0,1,1022.85,523.4Z"/></g><g id="Rocket_Bottom" data-name="Rocket Bottom"><polygon class="cls-11" points="1017.19 506.88 1015.79 507.68 1015.76 520.87 1017.19 520.05 1017.19 506.88"/></g><g id="Rocket_Bottom_Edge" data-name="Rocket Bottom Edge"><polygon class="cls-18" points="1017.19 520.05 1015.76 520.87 1017.18 521.7 1018.6 520.88 1017.19 520.05"/></g><g id="Rocket_Window_Edge" data-name="Rocket Window Edge"><path class="cls-18" d="M1038.7,501.16c-.5-2.68-4.32-1-4.32-1v6.66S1039.21,503.85,1038.7,501.16Z"/></g><path id="Rocket_Window" data-name="Rocket Window" class="cls-11" d="M1038.73,501.73a1.83,1.83,0,0,0-.22-1.12,5.9,5.9,0,0,0-2.74.52v4.73S1038.7,503.56,1038.73,501.73Z"/><g id="Flames"><polygon id="Flame_Edge_top_Side_" data-name="Flame Edge (top &amp; Side)" class="cls-22" points="1014.43 511.89 1013.62 511.41 1013.61 517.86 1008.44 520.83 1009.25 521.3 1014.43 518.32 1014.43 511.89"/><polygon id="Flame_Edge_Bottom_" data-name="Flame Edge (Bottom)" class="cls-22" points="1002.55 517.68 1003.5 518.23 1009.23 518.56 1009.44 517.96 1002.55 517.68"/><polygon id="Flame" class="cls-23" points="1013.62 511.41 1013.61 517.86 1008.44 520.84 1009.44 517.96 1002.55 517.68 1013.62 511.41"/></g></g><g class="cls-24"><path class="cls-14" d="M1121.71,332.33a424.79,424.79,0,0,1-59.51,3.86c-56,0-101.4-9.07-101.4-20.26,0-5.88,12.58-11.18,32.63-14.88,0,0,.11-.93.46-2.86s.61-3.09.61-3.09c-32.1,4.83-53.21,13.29-53.21,24.13v3.09c.55,17.25,54.47,31.18,120.91,31.18a415.63,415.63,0,0,0,59.51-4.06Z"/></g><path class="cls-16" d="M1121.72,329.21a426,426,0,0,1-59.49,3.85c-56,0-101.4-9.07-101.4-20.25,0-5.94,12.77-11.27,33.13-15,0,0,.14-.76.54-2.73s.54-2.32.54-2.32c-32.39,5.64-53.72,15.24-53.72,26.15,0,17.36,54.13,31.44,120.91,31.44a415.09,415.09,0,0,0,59.46-4.05s0-3.16,0-9.33S1121.72,329.21,1121.72,329.21Z"/><g id="Door_Knob" data-name="Door Knob"><path class="cls-4" d="M715.83,529.14a8.73,8.73,0,0,1,1.19-4.78,8.08,8.08,0,0,1,.67-1,8.78,8.78,0,1,1,11,13.2,8.59,8.59,0,0,1-1.89.72,9.18,9.18,0,0,1-1.83.27A8.79,8.79,0,0,1,715.83,529.14Z"/><circle class="cls-6" cx="726.15" cy="528.93" r="8.99"/><circle class="cls-5" cx="726.32" cy="528.88" r="8.26"/><circle class="cls-6" cx="726.89" cy="528.22" r="7.93"/></g></svg>