<svg id="Isometric_Graphics" data-name="Isometric Graphics" xmlns="http://www.w3.org/2000/svg" viewBox="0 0 1488.56 1039.92"><defs><style>.cls-1,.cls-6{fill:none;stroke-miterlimit:10;}.cls-1{stroke:#c1c7cd;stroke-width:1.41px;}.cls-2{fill:#c1c7cd;}.cls-3{fill:#dde1e6;}.cls-4{fill:#f2f4f8;}.cls-5{fill:#878d96;}.cls-6{stroke:#0041f4;stroke-width:0.29px;}.cls-15,.cls-7{opacity:0.25;}.cls-15,.cls-8{fill:#4d5358;}.cls-9{fill:#bae6ff;}.cls-10{fill:#33b1ff;}.cls-11{fill:#e5f6ff;}.cls-12{fill:#a2a9b0;}.cls-13{fill:#697077;}.cls-14{fill:#fff;}</style></defs><line class="cls-1" x1="657.69" y1="511.55" x2="1487.81" y2="990.9"/><line id="Do_Not_Sign" data-name="Do Not Sign" class="cls-1" x1="-0.04" y1="891.38" x2="657.69" y2="511.55"/><line class="cls-1" x1="657.69" y1="511.55" x2="657.22" y2="1.22"/><g id="Shadow"><path class="cls-2" d="M395.26,701.5c18.24,10.53,18.32,27.59.22,38.11-9.76,5.67-39.46,15.56-52.27,15.11-11-.37-5.09-10.26-13.51-15.12-18.22-10.52-18.31-27.57-.21-38.09S377,691,395.26,701.5Z"/></g><g id="Pot"><g id="Pot-2" data-name="Pot"><path class="cls-3" d="M386.17,669.1l-.74,59.44c0,6.8-4.49,13.59-13.41,18.77-18,10.44-47.15,10.44-65.24,0-9.1-5.25-13.64-12.14-13.62-19l.17-58c1.19,6.1,4.57,10.41,13.66,15.66,18.09,10.45,47.29,10.45,65.24,0C381.15,680.8,384.17,675.24,386.17,669.1Z"/></g><g id="Pot_Top" data-name="Pot Top"><path class="cls-4" d="M372.56,651.62c18.24,10.53,18.32,27.59.22,38.11s-47.53,10.52-65.78,0-18.31-27.57-.21-38.09S354.34,641.1,372.56,651.62Z"/></g><g id="Pot_Interior" data-name="Pot Interior"><path class="cls-3" d="M369.53,654.45c16.55,9,16.61,23.49.19,32.45s-43.13,9-59.68,0-16.62-23.47-.19-32.43S353,645.49,369.53,654.45Z"/></g><g id="Dirt"><path class="cls-5" d="M369,666.84c5,2.71,9.39,6.4,11.42,10.1,0,0-2.14,5.5-11.45,10.36-16,8.38-42.15,8.34-58.27-.06-8.1-4.21-10.68-8.93-10.68-8.93,1.59-4,5.66-8.36,11.35-11.46C327.24,658.2,353.05,658.19,369,666.84Z"/></g></g><g id="Plant"><path class="cls-6" d="M341.45,557.3a29.17,29.17,0,0,1,8.28-4l-9.9,14.12"/><g id="Stem"><path class="cls-3" d="M326.26,681.23l9.55-41.41s-.15-12.79-6.27-29.92c-7.82-20.95-19.79-28.4-19.79-28.4l14.79,6,6.62-16.12s-2.34-17.15-5-24.69a49.39,49.39,0,0,0-8.31-14s5.28.85,11.56,10.7A49.19,49.19,0,0,1,336.65,563a19.26,19.26,0,0,1,4.8-5.68,29.17,29.17,0,0,1,8.28-4,105.09,105.09,0,0,0-9.9,14.12c-4.53,7.84-6.58,27.79-6.58,27.79l13.25,24.71a70,70,0,0,1,13.3-15.32c7.88-6.49,18.34-9.55,18.34-9.55a108.86,108.86,0,0,0-13.22,18.38,87.79,87.79,0,0,0-9,24.72c-1.57,7-5.93,42.74-5.93,42.74s-2.48,3.32-12.31,5.77S326.26,681.23,326.26,681.23Z"/></g><g id="Stem_Shadow" data-name="Stem Shadow"><path class="cls-2" d="M326.26,681.23l9.55-41.41s-.15-12.79-6.27-29.92c-7.82-20.95-19.79-28.4-19.79-28.4l14.79,6,6.62-16.12s-2.34-17.15-5-24.69a49.39,49.39,0,0,0-8.31-14s5.49.76,11.09,11c3.39,6.18,5.48,24.64,5.48,24.64a20.39,20.39,0,0,1,7-11,31.88,31.88,0,0,1,8.28-4s-7.17,3.09-12.83,14.6c-4,8.12-8.28,27.31-8.28,27.31s5.09,4.09,9.63,19.58c2.08,7.09,5.69,23.51,4.33,31.89-1.64,10.09-7.56,29.13-6.08,33.83s4.43,4.89,4.43,4.89a10.26,10.26,0,0,1-3.27,1.26C327.83,689.13,326.26,681.23,326.26,681.23Z"/></g><g id="Stem_Shadow-2" data-name="Stem Shadow"><path class="cls-2" d="M350.13,632l-3.89-11.11a49.27,49.27,0,0,1,13.56-16.22c9.41-7.28,17.55-9.3,17.55-9.3A98.37,98.37,0,0,0,360,613.54C351.94,624.67,350.13,632,350.13,632Z"/></g><g id="Leaf"><path class="cls-2" d="M321.66,533.41s-2.5-17.35-16.09-25.2c-17.18-9.92-42.2,4.32-42.2,4.32s10,18.45,25.32,24.92S321.66,533.41,321.66,533.41Z"/></g><g id="Leaf-2" data-name="Leaf"><path class="cls-2" d="M313.83,585.3s-11.61-20.65-32.58-23.91c-26.49-4.12-51.07,26-51.07,26s21.62,18.37,44.07,19.06S313.83,585.3,313.83,585.3Z"/></g><g id="Leaf-3" data-name="Leaf"><path class="cls-2" d="M344.78,552.67s2.92-20.32,18.85-29.51c20.12-11.62,49.41,5.05,49.41,5.05s-11.72,21.61-29.65,29.19S344.78,552.67,344.78,552.67Z"/></g><g id="Shadow-2" data-name="Shadow" class="cls-7"><path class="cls-8" d="M321.09,532.66s-8.77-12.65-19.4-13.1c-9-.37-19,6.29-24.13,10.34A41.58,41.58,0,0,0,289,537.45c13.3,5.63,28.37-2.15,32.1-4.29A4.16,4.16,0,0,0,321.09,532.66Z"/></g><g id="Shadow-3" data-name="Shadow" class="cls-7"><path class="cls-8" d="M312.63,583.75s-12.61,1.65-19.24,6.6c-5.44,4.06-9.94,9.89-11.25,14.77,16.23-3,28.5-16.31,31.45-19.76.09-.19.18-.38.24-.53C313.67,584.65,312.63,583.75,312.63,583.75Z"/></g><g id="Leaf-4" data-name="Leaf"><path class="cls-3" d="M321.58,533.28s-11.11-10.67-21.61-9c-12.77,2-24.51,18.56-24.51,18.56s15.47,8.81,29.58,6.82C326.19,546.67,321.58,533.28,321.58,533.28Z"/></g><g id="Leaf-5" data-name="Leaf"><path class="cls-3" d="M314.49,584.68s-18.08,3.21-23.86,14.51c-7,13.73.67,36.68.67,36.68s19.38-8.73,27.37-23.73C330.65,589.65,314.49,584.68,314.49,584.68Z"/></g><g id="Leaf-6" data-name="Leaf"><path class="cls-3" d="M344.6,552.61s13.65-7.12,23.27-2.57c11.68,5.52,18.33,24.68,18.33,24.68s-17.33,4.13-30.32-1.74C336.42,564.18,344.6,552.61,344.6,552.61Z"/></g><g id="Leaf-7" data-name="Leaf"><path class="cls-2" d="M375,595.15s11-16.19,24.53-16.87c16.42-.83,35.39,16.65,35.39,16.65S418,610,399.89,611.2C372.78,613,375,595.15,375,595.15Z"/></g><g id="Leaf-8" data-name="Leaf"><path class="cls-3" d="M324.38,537s-1.41-10.33,1.91-14.28a17.43,17.43,0,0,1,16.61-6s.08,11.9-5.33,17.32C330.42,541.18,324.38,537,324.38,537Z"/></g><g id="Leaf-9" data-name="Leaf"><path class="cls-3" d="M339,567.55s11.84,2.65,14.79,7.86a20.21,20.21,0,0,1-.15,20.53s-13-4.71-16.71-12.81C332.08,572.46,339,567.55,339,567.55Z"/></g><g id="Leaf-10" data-name="Leaf"><path class="cls-3" d="M373.64,598s-2.53-9-.09-12.87a15.57,15.57,0,0,1,13.95-7.41s1.56,10.52-2.56,16C379.5,601,373.64,598,373.64,598Z"/></g><g id="Leaf-11" data-name="Leaf"><path class="cls-3" d="M374.14,598.64s16.39-3.57,23.12,1.24C411.53,610.06,404,632.7,404,632.7s-14-5.32-23.4-13.31C368.25,608.85,374.14,598.64,374.14,598.64Z"/></g></g><g id="Door"><polygon class="cls-9" points="875.53 117.8 875.53 647.43 1141.98 801.29 1141.99 271.96 875.53 117.8"/><polygon class="cls-5" points="907.78 164.05 907.78 666.05 1118.6 787.79 1118.61 282.94 907.78 164.05"/><polygon class="cls-10" points="900.12 159.63 907.78 163.95 907.78 666.05 900.12 661.63 900.12 159.63"/><polygon class="cls-10" points="1141.99 272 1149.65 267.29 1149.65 797 1141.99 801.29 1141.99 272"/><polygon class="cls-11" points="875.53 117.8 883.02 113.47 1149.65 267.29 1141.99 272 875.53 117.8"/></g><polygon class="cls-2" points="912.14 540.53 914.76 568.64 921.18 565.79 920 536.12 912.14 540.53"/><path class="cls-12" d="M906.67,204.11l-6.55,4.56,1.47,28.2,6.19-3.11V204.69A.71.71,0,0,0,906.67,204.11Z"/><path class="cls-2" d="M907.78,241a4.67,4.67,0,0,1-7.63.7l-2.62-28.4a4.67,4.67,0,0,0,7.63-.71Z"/><ellipse class="cls-4" cx="901.27" cy="212.08" rx="3.6" ry="2.61" transform="translate(-15.67 83.67) rotate(-5.27)"/><path class="cls-2" d="M914.31,568.92a4.66,4.66,0,0,1-7.62.74L904,541.27a4.66,4.66,0,0,0,7.62-.74Z"/><ellipse class="cls-4" cx="907.68" cy="540.06" rx="3.6" ry="2.61" transform="translate(-47.63 89.59) rotate(-5.51)"/><circle class="cls-13" cx="919.77" cy="548.41" r="1.84"/><circle class="cls-13" cx="920.42" cy="557.03" r="1.84"/><polygon class="cls-11" points="907.78 170.05 923.87 650.38 1105.6 787.79 1088.51 300.65 907.78 170.05"/><polygon class="cls-14" points="907.78 170.05 913.04 167.01 934.66 179.21 1096.63 296.59 1088.51 300.65 907.78 170.05"/><polygon class="cls-8" points="1088.51 300.65 1096.63 296.59 1114.1 779.43 1105.6 787.79 1088.51 300.65"/><path class="cls-12" d="M897.14,213.22l-11.72,16.32a2.21,2.21,0,0,0-.44,1.92l4.16,17.78a2.23,2.23,0,0,0,3.93.86l6.82-8.54Z"/><polygon class="cls-15" points="900.12 661.63 923.87 650.38 1105.6 787.79 1103.48 789.42 900.12 661.63"/><polygon class="cls-15" points="900.12 179.49 907.78 175.07 914.61 375.03 900.12 179.49"/><circle class="cls-13" cx="892.06" cy="231.53" r="1.84"/><circle class="cls-13" cx="893.6" cy="239.35" r="1.84"/><path class="cls-2" d="M901.63,703.82l8-4.3a2.85,2.85,0,0,1,3.15,1.24,3,3,0,0,1,.1,3.45L905,708.66Z"/><path class="cls-13" d="M913.17,701.49a3,3,0,0,1-.27,2.71l-7.84,4.54-1.38-1.85,2.63-1.54.14-.63.71.14.14-.63.72.15.14-.63.72.14.14-.62.72.14.14-.62.71.14.15-.63.71.15.14-.63.72.15.14-.63Z"/><path class="cls-13" d="M905.64,705c1.62,2.95,1.05,6.41-1.23,8-.12.08-.64.47-.77.54-2.59,1.42-5.68-.26-7.38-3.37-1.61-2.94-2.13-4.82-.27-6.84a9.09,9.09,0,0,1,1.63-1.23l.24-.14C900.45,700.47,903.94,701.85,905.64,705Z"/><ellipse class="cls-2" cx="900.05" cy="708.16" rx="5.35" ry="6.42" transform="translate(-229.6 519.8) rotate(-28.73)"/><path class="cls-13" d="M897.21,704.53l0,0a.69.69,0,0,1,.92.23l4.4,6.88a.68.68,0,0,1-.18.93h0a.68.68,0,0,1-1-.18L897,705.5A.69.69,0,0,1,897.21,704.53Z"/><path class="cls-13" d="M903,706l0,0a.69.69,0,0,1-.11.94L898,711a.67.67,0,0,1-.94-.06h0a.68.68,0,0,1,.07-1l4.89-4A.68.68,0,0,1,903,706Z"/><path class="cls-2" d="M813,644.16l8-4.27a2.88,2.88,0,0,1,3.15,1.26,3,3,0,0,1,.08,3.45L816.33,649Z"/><path class="cls-13" d="M824.55,641.88a3,3,0,0,1-.28,2.71l-7.86,4.51L815,647.24l2.63-1.53.14-.63.72.15.14-.63.72.14.14-.62.72.15.14-.63.72.15.14-.63.72.15.14-.63.72.15.14-.63.72.15.14-.62Z"/><path class="cls-13" d="M817,645.32c1.6,3,1,6.41-1.27,8-.12.08-.64.47-.77.54-2.6,1.41-5.68-.28-7.37-3.4-1.6-2.94-2.11-4.83-.24-6.84a9.58,9.58,0,0,1,1.64-1.23l.24-.14C811.83,640.8,815.32,642.2,817,645.32Z"/><ellipse class="cls-2" cx="811.4" cy="648.5" rx="5.35" ry="6.42" transform="translate(-211.06 465.51) rotate(-28.49)"/><path class="cls-13" d="M808.57,644.85l0,0a.69.69,0,0,1,.92.23L813.9,652a.69.69,0,0,1-.18.93h0a.7.7,0,0,1-1-.19l-4.41-6.89A.69.69,0,0,1,808.57,644.85Z"/><path class="cls-13" d="M814.36,646.38l0,0a.68.68,0,0,1-.12.94l-4.94,3.95a.69.69,0,0,1-.94-.07h0a.69.69,0,0,1,.07-1l4.92-4A.69.69,0,0,1,814.36,646.38Z"/><path class="cls-2" d="M851.67,704.7,844,699.92a2.86,2.86,0,0,1-.5-3.35,3,3,0,0,1,2.95-1.81l7.79,4.63Z"/><path class="cls-13" d="M843.9,695.86a3,3,0,0,1,2.48-1.12l7.85,4.53-.92,2.12-2.64-1.5-.62.19-.23-.69-.62.19-.23-.69-.61.18-.24-.69-.61.19-.23-.69-.62.19-.23-.7-.61.19-.23-.69-.62.19-.23-.69-.61.19Z"/><path class="cls-13" d="M851.13,700.66c2-2.69,5.41-3.6,7.77-2.16.12.08.69.39.81.48,2.36,1.78,2.1,5.28,0,8.11-2,2.68-3.52,3.93-6.12,3.06a9.93,9.93,0,0,1-1.8-1l-.22-.16C849.18,707.24,849,703.49,851.13,700.66Z"/><ellipse class="cls-2" cx="856.36" cy="704.44" rx="6.42" ry="5.35" transform="translate(-221.38 965.34) rotate(-53.05)"/><path class="cls-13" d="M855.14,709.23h0a.69.69,0,0,1-.44-.84l2.29-7.85a.69.69,0,0,1,.82-.48h0a.69.69,0,0,1,.5.86L856,708.77A.68.68,0,0,1,855.14,709.23Z"/><path class="cls-13" d="M852.46,703.88v0a.68.68,0,0,1,.78-.53l6.23,1.09a.69.69,0,0,1,.57.75h0a.69.69,0,0,1-.79.61L853,704.7A.69.69,0,0,1,852.46,703.88Z"/><path class="cls-13" d="M818.68,672c-3.21-2.67-6.52-1.86-8.69.75s-2.08,6.29,1.14,9l.79.63c3.21,2.64,7.55,2.68,9.71.08s1.34-6.78-1.76-9.45Zm.62,8.48c-1.3,1.57-3.92,1.54-5.85-.06s-2.44-4.17-1.14-5.74,3.93-1.54,5.86.06S820.61,678.88,819.3,680.44Z"/><path class="cls-2" d="M818.68,672c-3.21-2.67-7.57-2.72-9.74-.1s-1.32,6.89,1.89,9.56,7.58,2.71,9.74.1S821.9,674.63,818.68,672Zm-.43,7.63c-1.3,1.57-3.92,1.54-5.85-.06s-2.44-4.18-1.14-5.74,3.92-1.54,5.85.06S819.55,678,818.25,679.59Z"/><path class="cls-13" d="M890.73,680c-3.21-2.67-6.52-1.86-8.69.75s-2.07,6.29,1.14,9l.79.63c3.21,2.64,7.55,2.67,9.71.07s1.34-6.77-1.76-9.45C891.87,680.91,890.78,680,890.73,680Zm.62,8.48c-1.3,1.57-3.92,1.54-5.85-.06s-2.44-4.17-1.13-5.74,3.92-1.54,5.85.06S892.66,686.89,891.35,688.46Z"/><path class="cls-2" d="M890.73,680c-3.21-2.67-7.57-2.72-9.74-.11s-1.32,6.89,1.89,9.56,7.58,2.72,9.75.11S894,682.65,890.73,680Zm-.43,7.63c-1.3,1.56-3.92,1.54-5.85-.07s-2.44-4.17-1.14-5.74,3.93-1.54,5.86.07S891.6,686,890.3,687.61Z"/><path class="cls-13" d="M892.51,235.6c2.16-1.13,4.65-.67,5.74,1,.06.09.33.48.38.57,1,1.9-.27,4.1-2.54,5.28s-3.52,1.47-5,.09a7.07,7.07,0,0,1-.87-1.2l-.1-.17C889.19,239.28,890.24,236.78,892.51,235.6Z"/><ellipse class="cls-2" cx="894.74" cy="239.68" rx="4.64" ry="3.87" transform="translate(-9.47 440.7) rotate(-27.53)"/><path class="cls-13" d="M892.45,242.43l0,0a.51.51,0,0,1,0-.68l3.94-4.41a.51.51,0,0,1,.68-.06h0a.5.5,0,0,1,.06.72l-3.91,4.43A.51.51,0,0,1,892.45,242.43Z"/><path class="cls-13" d="M892.37,238.11l0,0a.5.5,0,0,1,.68-.11l3.72,2.65a.49.49,0,0,1,.14.67h0a.5.5,0,0,1-.7.15l-3.74-2.63A.49.49,0,0,1,892.37,238.11Z"/><path class="cls-5" d="M1047.19,502.3l2.61,64.93a1,1,0,0,0,.62.9l24.07,12.36a1.22,1.22,0,0,0,1.13,0c.4-.2,2.9-3.16,2.88-3.67l-2.53-63a2.89,2.89,0,0,0-1.72-2.43l-22.93-12.08c-.88-.37-3.52,1.69-3.88,2.09A1.17,1.17,0,0,0,1047.19,502.3Z"/><path class="cls-4" d="M1047.14,502.21l2.6,64.93a1.23,1.23,0,0,0,.66,1l24.1,12.35a1.22,1.22,0,0,0,1.79-1.13l-2.57-63.85a3.05,3.05,0,0,0-1.63-2.59l-22.77-12A1.6,1.6,0,0,0,1047.14,502.21Z"/><path class="cls-8" d="M1056.05,541.72a6.14,6.14,0,0,1,6.71-5.4,5.61,5.61,0,0,0-1.08-.23,6.14,6.14,0,0,0-1.41,12.2h.1A6.14,6.14,0,0,1,1056.05,541.72Z"/><path class="cls-5" d="M1062.74,536.31a6.14,6.14,0,1,0,4.33,6.58A6.15,6.15,0,0,0,1062.74,536.31Z"/><g class="cls-7"><ellipse class="cls-5" cx="1032.35" cy="796.45" rx="10.09" ry="1.07"/></g><g id="Door_Knob" data-name="Door Knob"><path class="cls-8" d="M1041.13,787.61a8.73,8.73,0,0,1-1.19,4.78,8.59,8.59,0,0,1-.67,1,8.84,8.84,0,0,1-3,2.43,8.79,8.79,0,1,1-6.15-16.36,9.17,9.17,0,0,1,1.84-.27A8.8,8.8,0,0,1,1041.13,787.61Z"/><circle class="cls-2" cx="1030.8" cy="787.82" r="8.99"/><circle class="cls-14" cx="1030.63" cy="787.87" r="8.26"/><circle class="cls-2" cx="1030.06" cy="788.53" r="7.93"/></g><g id="Sign"><polygon class="cls-3" points="941.31 60.19 941.31 129.58 1076.68 207.68 1076.64 138.38 941.31 60.19"/><polygon class="cls-5" points="941.31 60.19 947.93 56.26 1083.57 134.88 1076.64 138.38 941.31 60.19"/><polygon class="cls-8" points="1076.64 138.38 1083.57 134.88 1083.57 201.97 1076.68 207.68 1076.64 138.38"/><polygon class="cls-14" points="946.65 70.05 946.65 126.15 1071.07 197.97 1071.03 141.65 946.65 70.05"/></g><polygon class="cls-8" points="1003.61 109.9 1003.59 137.56 1011.5 142.06 1011.55 114.49 1003.61 109.9"/><polygon class="cls-8" points="1003.59 142.55 1003.59 151.73 1011.55 156.34 1011.55 147.14 1003.59 142.55"/></svg>